<svg width="130" height="44" viewBox="0 0 130 44" fill="none" xmlns="http://www.w3.org/2000/svg">
<path d="M108.316 9.86082C105.976 9.86082 103.69 10.5548 101.745 11.855C99.7995 13.1553 98.2835 15.0033 97.3883 17.1655C96.4931 19.3277 96.2589 21.7069 96.7152 24.0023C97.1716 26.2977 98.2981 28.4061 99.9522 30.061C101.606 31.7158 103.714 32.8428 106.008 33.2994C108.303 33.756 110.681 33.5217 112.842 32.626C115.003 31.7304 116.851 30.2138 118.15 28.2678C119.45 26.3219 120.144 24.0341 120.144 21.6938C120.144 20.1399 119.838 18.6012 119.243 17.1655C118.649 15.7299 117.778 14.4254 116.679 13.3266C115.581 12.2278 114.277 11.3562 112.842 10.7615C111.407 10.1669 109.869 9.86082 108.316 9.86082ZM108.316 0C112.604 0 116.797 1.27232 120.363 3.65606C123.929 6.03981 126.708 9.42792 128.349 13.3919C129.991 17.356 130.42 21.7179 129.583 25.926C128.747 30.1342 126.681 33.9997 123.649 37.0336C120.616 40.0676 116.752 42.1337 112.546 42.9708C108.34 43.8078 103.98 43.3782 100.018 41.7362C96.0553 40.0943 92.6686 37.3138 90.2859 33.7462C87.9032 30.1787 86.6315 25.9844 86.6315 21.6938C86.6315 15.9402 88.9161 10.4223 92.9827 6.35397C97.0492 2.28559 102.565 0 108.316 0Z" fill="#CFAE1F"/>
<path d="M21.6842 9.86082C19.3449 9.86082 17.0582 10.5548 15.1131 11.855C13.168 13.1553 11.652 15.0033 10.7568 17.1655C9.86159 19.3277 9.62737 21.7069 10.0837 24.0023C10.5401 26.2977 11.6666 28.4061 13.3207 30.061C14.9749 31.7158 17.0824 32.8428 19.3768 33.2994C21.6711 33.756 24.0493 33.5217 26.2105 32.626C28.3718 31.7304 30.219 30.2138 31.5187 28.2678C32.8183 26.3219 33.512 24.0341 33.512 21.6938C33.512 20.1399 33.2061 18.6012 32.6117 17.1655C32.0173 15.7299 31.1461 14.4254 30.0477 13.3266C28.9494 12.2278 27.6455 11.3562 26.2105 10.7615C24.7755 10.1669 23.2375 9.86082 21.6842 9.86082ZM21.6842 0C25.973 0 30.1654 1.27232 33.7314 3.65606C37.2973 6.03981 40.0766 9.42792 41.7179 13.3919C43.3591 17.356 43.7885 21.7179 42.9518 25.926C42.1151 30.1342 40.0499 33.9997 37.0173 37.0336C33.9847 40.0676 30.121 42.1337 25.9146 42.9708C21.7083 43.8078 17.3483 43.3782 13.386 41.7362C9.42377 40.0943 6.03715 37.3138 3.65445 33.7462C1.27176 30.1787 0 25.9844 0 21.6938C0 15.9402 2.28458 10.4223 6.35117 6.35397C10.4178 2.28559 15.9332 0 21.6842 0Z" fill="#CFAE1F"/>
<path d="M108.099 43.3876H18.3255V35.5778H108.099V43.3876Z" fill="#CFAE1F"/>
</svg>
