<svg width="21" height="18" viewBox="0 0 21 18" fill="none" xmlns="http://www.w3.org/2000/svg">
<path d="M10.5017 3.78645C11.7627 3.78243 12.9738 4.27898 13.8691 5.16708C14.7644 6.05519 15.2707 7.26226 15.2768 8.5233C15.2771 9.11788 15.161 9.70677 14.9352 10.2568L17.7239 13.0213C19.1767 11.821 20.3033 10.2736 20.9993 8.52229C19.911 5.80641 17.8124 3.61805 15.1444 2.41695C12.4765 1.21585 9.44686 1.0955 6.69206 2.08119L8.75409 4.13214C9.30941 3.90707 9.9025 3.78975 10.5017 3.78645ZM0.957448 1.20437L3.13539 3.36518L3.57581 3.80056C1.9797 5.02386 0.744137 6.65607 0 8.52431C1.11598 11.3034 3.28727 13.5273 6.03882 14.7094C8.79037 15.8916 11.8982 15.9358 14.6822 14.8324L15.0853 15.2355L17.8831 18L19.0925 16.7956L2.16686 0L0.957448 1.20437ZM6.2345 6.43909L7.70997 7.90549C7.66156 8.10653 7.63653 8.31249 7.63539 8.51927C7.63658 8.89385 7.71162 9.26453 7.85622 9.61008C8.00082 9.95563 8.21214 10.2693 8.47808 10.5331C8.74403 10.7969 9.05938 11.0056 9.4061 11.1474C9.75281 11.2892 10.1241 11.3612 10.4987 11.3594C10.7071 11.3585 10.9148 11.3335 11.1175 11.2848L12.598 12.7512C11.875 13.1128 11.0716 13.2838 10.264 13.2482C9.45645 13.2126 8.67131 12.9714 7.98295 12.5475C7.29459 12.1237 6.7258 11.5312 6.33042 10.8261C5.93503 10.121 5.72614 9.32664 5.72352 8.51826C5.73032 7.7952 5.90453 7.08354 6.23248 6.43909H6.2345ZM10.3495 5.70336L13.3539 8.68859L13.373 8.53842C13.3718 8.16383 13.2968 7.79316 13.1522 7.44761C13.0076 7.10206 12.7963 6.78841 12.5303 6.52462C12.2644 6.26083 11.949 6.05206 11.6023 5.91028C11.2556 5.76849 10.8843 5.69647 10.5098 5.69833L10.3495 5.70336Z" fill="#89898B"/>
</svg>
